<svg width="502.5" height="667.5" viewBox="0 0 502.5 667.5" xmlns="http://www.w3.org/2000/svg" style="background-color: #f9fafb;">
            <defs>
                <filter id="drop-shadow" x="-50%" y="-50%" width="200%" height="200%">
                    <feGaussianBlur in="SourceAlpha" stdDeviation="0" result="blur"/>
                    <feOffset in="blur" dx="0" dy="0" result="offsetBlur"/>
                    <feFlood flood-color="rgba(0,0,0,0.4)" result="flood"/>
                    <feComposite in="flood" in2="offsetBlur" operator="in"/>
                    <feMerge>
                        <feMergeNode/>
                        <feMergeNode in="SourceGraphic"/>
                    </feMerge>
                </filter>
            </defs>
        <g transform="translate(-752.5, 320)"><g filter="url(#drop-shadow)"><path d=" M 852.5 -137.5 L 907.5 -137.5 L 907.5 -137.5 L 907.5 -82.5 L 907.5 -82.5 L 852.5 -82.5 L 852.5 -82.5 L 852.5 -137.5 Z M 852.5 -165 L 907.5 -165 L 907.5 -165 L 907.5 -137.5 L 907.5 -137.5 L 852.5 -137.5 L 852.5 -137.5 L 852.5 -165 Z M 852.5 -82.5 L 907.5 -82.5 L 907.5 -82.5 L 907.5 -55 L 907.5 -55 L 852.5 -55 L 852.5 -55 L 852.5 -82.5 Z M 852.5 -220 L 907.5 -220 L 907.5 -220 L 907.5 -165 L 907.5 -165 L 852.5 -165 L 852.5 -165 L 852.5 -220 Z M 852.5 -55 L 907.5 -55 L 907.5 -55 L 907.5 0 L 907.5 0 L 852.5 0 L 852.5 0 L 852.5 -55 Z M 907.5 -55 L 935 -55 L 935 -55 L 935 0 L 935 0 L 907.5 0 L 907.5 0 L 907.5 -55 Z M 935 -55 L 990 -55 L 990 -55 L 990 0 L 990 0 L 935 0 L 935 0 L 935 -55 Z M 935 -82.5 L 990 -82.5 L 990 -82.5 L 990 -55 L 990 -55 L 935 -55 L 935 -55 L 935 -82.5 Z M 935 -137.5 L 990 -137.5 L 990 -137.5 L 990 -82.5 L 990 -82.5 L 935 -82.5 L 935 -82.5 L 935 -137.5 Z M 990 -137.5 L 1017.5 -137.5 L 1017.5 -137.5 L 1017.5 -82.5 L 1017.5 -82.5 L 990 -82.5 L 990 -82.5 L 990 -137.5 Z M 935 -165 L 990 -165 L 990 -165 L 990 -137.5 L 990 -137.5 L 935 -137.5 L 935 -137.5 L 935 -165 Z M 1017.5 -137.5 L 1072.5 -137.5 L 1072.5 -137.5 L 1072.5 -82.5 L 1072.5 -82.5 L 1017.5 -82.5 L 1017.5 -82.5 L 1017.5 -137.5 Z M 935 -220 L 990 -220 L 990 -220 L 990 -165 L 990 -165 L 935 -165 L 935 -165 L 935 -220 Z M 1072.5 -137.5 L 1100 -137.5 L 1100 -137.5 L 1100 -82.5 L 1100 -82.5 L 1072.5 -82.5 L 1072.5 -82.5 L 1072.5 -137.5 Z M 1017.5 -165 L 1072.5 -165 L 1072.5 -165 L 1072.5 -137.5 L 1072.5 -137.5 L 1017.5 -137.5 L 1017.5 -137.5 L 1017.5 -165 Z M 1100 -137.5 L 1155 -137.5 L 1155 -137.5 L 1155 -82.5 L 1155 -82.5 L 1100 -82.5 L 1100 -82.5 L 1100 -137.5 Z M 1017.5 -220 L 1072.5 -220 L 1072.5 -220 L 1072.5 -165 L 1072.5 -165 L 1017.5 -165 L 1017.5 -165 L 1017.5 -220 Z M 1100 -165 L 1155 -165 L 1155 -165 L 1155 -137.5 L 1155 -137.5 L 1100 -137.5 L 1100 -137.5 L 1100 -165 Z M 1100 -220 L 1155 -220 L 1155 -220 L 1155 -165 L 1155 -165 L 1100 -165 L 1100 -165 L 1100 -220 Z" fill="#111827"/><path d=" M 1017.5 110 L 1072.5 110 L 1072.5 110 L 1072.5 165 L 1072.5 165 L 1017.5 165 L 1017.5 165 L 1017.5 110 Z M 990 110 L 1017.5 110 L 1017.5 110 L 1017.5 165 L 1017.5 165 L 990 165 L 990 165 L 990 110 Z M 1072.5 110 L 1100 110 L 1100 110 L 1100 165 L 1100 165 L 1072.5 165 L 1072.5 165 L 1072.5 110 Z M 935 110 L 990 110 L 990 110 L 990 165 L 990 165 L 935 165 L 935 165 L 935 110 Z M 1100 110 L 1155 110 L 1155 110 L 1155 165 L 1155 165 L 1100 165 L 1100 165 L 1100 110 Z M 935 82.5 L 990 82.5 L 990 82.5 L 990 110 L 990 110 L 935 110 L 935 110 L 935 82.5 Z M 935 165 L 990 165 L 990 165 L 990 192.5 L 990 192.5 L 935 192.5 L 935 192.5 L 935 165 Z M 1100 82.5 L 1155 82.5 L 1155 82.5 L 1155 110 L 1155 110 L 1100 110 L 1100 110 L 1100 82.5 Z M 935 27.5 L 990 27.5 L 990 27.5 L 990 82.5 L 990 82.5 L 935 82.5 L 935 82.5 L 935 27.5 Z M 935 192.5 L 990 192.5 L 990 192.5 L 990 247.5 L 990 247.5 L 935 247.5 L 935 247.5 L 935 192.5 Z M 1100 27.5 L 1155 27.5 L 1155 27.5 L 1155 82.5 L 1155 82.5 L 1100 82.5 L 1100 82.5 L 1100 27.5 Z M 990 27.5 L 1017.5 27.5 L 1017.5 27.5 L 1017.5 82.5 L 1017.5 82.5 L 990 82.5 L 990 82.5 L 990 27.5 Z M 907.5 192.5 L 935 192.5 L 935 192.5 L 935 247.5 L 935 247.5 L 907.5 247.5 L 907.5 247.5 L 907.5 192.5 Z M 1100 0 L 1155 0 L 1155 0 L 1155 27.5 L 1155 27.5 L 1100 27.5 L 1100 27.5 L 1100 0 Z M 1017.5 27.5 L 1072.5 27.5 L 1072.5 27.5 L 1072.5 82.5 L 1072.5 82.5 L 1017.5 82.5 L 1017.5 82.5 L 1017.5 27.5 Z M 852.5 192.5 L 907.5 192.5 L 907.5 192.5 L 907.5 247.5 L 907.5 247.5 L 852.5 247.5 L 852.5 247.5 L 852.5 192.5 Z M 1100 -55 L 1155 -55 L 1155 -55 L 1155 0 L 1155 0 L 1100 0 L 1100 0 L 1100 -55 Z M 1017.5 0 L 1072.5 0 L 1072.5 0 L 1072.5 27.5 L 1072.5 27.5 L 1017.5 27.5 L 1017.5 27.5 L 1017.5 0 Z M 852.5 165 L 907.5 165 L 907.5 165 L 907.5 192.5 L 907.5 192.5 L 852.5 192.5 L 852.5 192.5 L 852.5 165 Z M 1072.5 -55 L 1100 -55 L 1100 -55 L 1100 0 L 1100 0 L 1072.5 0 L 1072.5 0 L 1072.5 -55 Z M 1017.5 -55 L 1072.5 -55 L 1072.5 -55 L 1072.5 0 L 1072.5 0 L 1017.5 0 L 1017.5 0 L 1017.5 -55 Z M 852.5 110 L 907.5 110 L 907.5 110 L 907.5 165 L 907.5 165 L 852.5 165 L 852.5 165 L 852.5 110 Z M 852.5 82.5 L 907.5 82.5 L 907.5 82.5 L 907.5 110 L 907.5 110 L 852.5 110 L 852.5 110 L 852.5 82.5 Z M 852.5 27.5 L 907.5 27.5 L 907.5 27.5 L 907.5 82.5 L 907.5 82.5 L 852.5 82.5 L 852.5 82.5 L 852.5 27.5 Z" fill="#111827"/><path d=" M 1017.5 192.5 L 1072.5 192.5 L 1072.5 192.5 L 1072.5 247.5 L 1072.5 247.5 L 1017.5 247.5 L 1017.5 247.5 L 1017.5 192.5 Z" fill="#111827"/><path d=" M 1100 192.5 L 1155 192.5 L 1155 192.5 L 1155 247.5 L 1155 247.5 L 1100 247.5 L 1100 247.5 L 1100 192.5 Z" fill="#111827"/></g></g></svg>